<svg width="337" height="338" viewBox="0 0 337 338" fill="none" xmlns="http://www.w3.org/2000/svg">
<path d="M337 0H0V337.001H337V0Z" fill="#F0DB4F"/>
<path d="M183.395 262.831C183.395 295.628 164.137 310.598 136.078 310.598C110.729 310.598 96.0606 297.51 88.5374 281.638L114.339 266.067C119.304 274.868 123.817 282.314 134.724 282.314C145.105 282.314 151.726 278.252 151.726 262.381V154.735H183.395V262.831Z" fill="#323330"/>
<g filter="url(#filter0_d_60_100)">
<path d="M28.4945 62H22.3617L22.4008 57.7812H28.4945C30.1482 57.7812 31.5349 57.4167 32.6547 56.6875C33.7745 55.9453 34.6208 54.8841 35.1937 53.5039C35.7667 52.1107 36.0531 50.444 36.0531 48.5039V47.0391C36.0531 45.5417 35.8904 44.2201 35.5648 43.0742C35.2393 41.9284 34.7576 40.9648 34.1195 40.1836C33.4945 39.4023 32.7198 38.8099 31.7953 38.4062C30.8708 38.0026 29.8096 37.8008 28.6117 37.8008H22.2445V33.5625H28.6117C30.5128 33.5625 32.2445 33.8815 33.807 34.5195C35.3826 35.1576 36.7432 36.0755 37.8891 37.2734C39.0479 38.4583 39.9333 39.8776 40.5453 41.5312C41.1703 43.1849 41.4828 45.0339 41.4828 47.0781V48.5039C41.4828 50.5352 41.1703 52.3841 40.5453 54.0508C39.9333 55.7044 39.0479 57.1237 37.8891 58.3086C36.7432 59.4935 35.376 60.4049 33.7875 61.043C32.199 61.681 30.4346 62 28.4945 62ZM25.3695 33.5625V62H19.9984V33.5625H25.3695ZM69.4805 47.0586V48.5234C69.4805 50.6719 69.194 52.6055 68.6211 54.3242C68.0482 56.0299 67.2344 57.4818 66.1797 58.6797C65.125 59.8776 63.8685 60.7956 62.4102 61.4336C60.9518 62.0716 59.3307 62.3906 57.5469 62.3906C55.7891 62.3906 54.1745 62.0716 52.7031 61.4336C51.2448 60.7956 49.9818 59.8776 48.9141 58.6797C47.8464 57.4818 47.0195 56.0299 46.4336 54.3242C45.8477 52.6055 45.5547 50.6719 45.5547 48.5234V47.0586C45.5547 44.8971 45.8477 42.9635 46.4336 41.2578C47.0195 39.5521 47.8398 38.1003 48.8945 36.9023C49.9492 35.6914 51.2057 34.7669 52.6641 34.1289C54.1354 33.4909 55.75 33.1719 57.5078 33.1719C59.2917 33.1719 60.9128 33.4909 62.3711 34.1289C63.8294 34.7669 65.0859 35.6914 66.1406 36.9023C67.2083 38.1003 68.0286 39.5521 68.6016 41.2578C69.1875 42.9635 69.4805 44.8971 69.4805 47.0586ZM64.0508 48.5234V47.0195C64.0508 45.4701 63.9076 44.1094 63.6211 42.9375C63.3346 41.7526 62.9115 40.7565 62.3516 39.9492C61.7917 39.1419 61.1016 38.5365 60.2812 38.1328C59.4609 37.7161 58.5365 37.5078 57.5078 37.5078C56.4661 37.5078 55.5417 37.7161 54.7344 38.1328C53.9401 38.5365 53.263 39.1419 52.7031 39.9492C52.1432 40.7565 51.7135 41.7526 51.4141 42.9375C51.1276 44.1094 50.9844 45.4701 50.9844 47.0195V48.5234C50.9844 50.0599 51.1276 51.4206 51.4141 52.6055C51.7135 53.7904 52.1432 54.793 52.7031 55.6133C53.276 56.4206 53.9661 57.0326 54.7734 57.4492C55.5807 57.8659 56.5052 58.0742 57.5469 58.0742C58.5885 58.0742 59.513 57.8659 60.3203 57.4492C61.1276 57.0326 61.8047 56.4206 62.3516 55.6133C62.9115 54.793 63.3346 53.7904 63.6211 52.6055C63.9076 51.4206 64.0508 50.0599 64.0508 48.5234ZM76.775 33.5625H81.4234L89.1969 54.9688L96.9508 33.5625H101.619L91.0523 62H87.3219L76.775 33.5625ZM74.4312 33.5625H78.982L79.8023 53.2305V62H74.4312V33.5625ZM99.3922 33.5625H103.962V62H98.5914V53.2305L99.3922 33.5625Z" fill="#323330"/>
</g>
<path d="M258.317 310.598C228.905 310.598 209.874 296.606 200.621 278.252L226.423 263.357C233.193 274.416 242.069 282.614 257.64 282.614C270.729 282.614 279.153 276.071 279.153 266.969C279.153 256.136 270.578 252.302 256.061 245.907L248.162 242.522C225.295 232.818 210.174 220.556 210.174 194.755C210.174 170.984 228.303 152.93 256.511 152.93C276.671 152.93 291.113 159.926 301.495 178.281L276.821 194.078C271.405 184.374 265.538 180.538 256.436 180.538C247.183 180.538 241.315 186.407 241.315 194.078C241.315 203.556 247.183 207.394 260.799 213.335L268.696 216.72C295.626 228.229 310.746 240.041 310.746 266.519C310.748 294.952 288.33 310.598 258.317 310.598Z" fill="#323330"/>
<defs>
<filter id="filter0_d_60_100" x="14.9985" y="28.1719" width="97.9639" height="43.2188" filterUnits="userSpaceOnUse" color-interpolation-filters="sRGB">
<feFlood flood-opacity="0" result="BackgroundImageFix"/>
<feColorMatrix in="SourceAlpha" type="matrix" values="0 0 0 0 0 0 0 0 0 0 0 0 0 0 0 0 0 0 127 0" result="hardAlpha"/>
<feOffset dx="2" dy="2"/>
<feGaussianBlur stdDeviation="3.5"/>
<feComposite in2="hardAlpha" operator="out"/>
<feColorMatrix type="matrix" values="0 0 0 0 0.816667 0 0 0 0 0.768687 0 0 0 0 0.765625 0 0 0 1 0"/>
<feBlend mode="normal" in2="BackgroundImageFix" result="effect1_dropShadow_60_100"/>
<feBlend mode="normal" in="SourceGraphic" in2="effect1_dropShadow_60_100" result="shape"/>
</filter>
</defs>
</svg>
