<svg width="333" height="391" viewBox="0 0 333 391" fill="none" xmlns="http://www.w3.org/2000/svg">
<rect x="13" width="320" height="320" rx="40" fill="#1F84A4" fill-opacity="0.9"/>
<path d="M181.253 172.25V286H157.425V172.25H181.253ZM216.175 172.25V190.922H123.128V172.25H216.175ZM290.391 256.156C290.391 254.177 290.078 252.38 289.453 250.766C288.88 249.151 287.786 247.667 286.172 246.312C284.609 244.906 282.396 243.552 279.531 242.25C276.667 240.896 272.943 239.49 268.359 238.031C263.151 236.365 258.229 234.49 253.594 232.406C249.01 230.271 244.948 227.823 241.406 225.062C237.917 222.25 235.156 218.995 233.125 215.297C231.094 211.599 230.078 207.276 230.078 202.328C230.078 197.589 231.12 193.292 233.203 189.438C235.286 185.531 238.229 182.198 242.031 179.438C245.833 176.625 250.312 174.464 255.469 172.953C260.625 171.443 266.276 170.688 272.422 170.688C280.807 170.688 288.125 172.198 294.375 175.219C300.677 178.188 305.547 182.302 308.984 187.562C312.474 192.823 314.219 198.891 314.219 205.766H290.469C290.469 202.484 289.792 199.594 288.438 197.094C287.083 194.594 285.026 192.641 282.266 191.234C279.557 189.776 276.12 189.047 271.953 189.047C267.995 189.047 264.661 189.646 261.953 190.844C259.297 192.042 257.292 193.656 255.938 195.688C254.635 197.719 253.984 199.984 253.984 202.484C253.984 204.411 254.453 206.156 255.391 207.719C256.38 209.229 257.812 210.661 259.688 212.016C261.615 213.318 263.984 214.568 266.797 215.766C269.609 216.911 272.839 218.057 276.484 219.203C282.63 221.078 288.047 223.188 292.734 225.531C297.474 227.875 301.432 230.505 304.609 233.422C307.839 236.339 310.26 239.672 311.875 243.422C313.49 247.12 314.297 251.312 314.297 256C314.297 261 313.307 265.453 311.328 269.359C309.401 273.266 306.615 276.573 302.969 279.281C299.375 281.99 295.026 284.047 289.922 285.453C284.87 286.859 279.219 287.562 272.969 287.562C267.292 287.562 261.693 286.833 256.172 285.375C250.703 283.865 245.729 281.599 241.25 278.578C236.823 275.505 233.281 271.625 230.625 266.938C227.969 262.25 226.641 256.677 226.641 250.219H250.547C250.547 253.708 251.068 256.677 252.109 259.125C253.203 261.573 254.74 263.552 256.719 265.062C258.698 266.573 261.068 267.667 263.828 268.344C266.589 268.969 269.635 269.281 272.969 269.281C276.927 269.281 280.182 268.734 282.734 267.641C285.339 266.495 287.266 264.932 288.516 262.953C289.766 260.922 290.391 258.656 290.391 256.156Z" fill="#E1D5D5"/>
</svg>
