<svg width="57" height="49" viewBox="0 0 57 49" fill="none" xmlns="http://www.w3.org/2000/svg">
<path fill-rule="evenodd" clip-rule="evenodd" d="M3.81111 0C1.70629 0 0 1.70629 0 3.81111C0 5.91593 1.70629 7.62222 3.81111 7.62222H52.77C54.8748 7.62222 56.5811 5.91593 56.5811 3.81111C56.5811 1.70629 54.8748 0 52.77 0H3.81111ZM3.81111 20.6889C1.70629 20.6889 0 22.3952 0 24.5C0 26.6048 1.7063 28.3111 3.81112 28.3111H31.5521C33.6569 28.3111 35.3632 26.6048 35.3632 24.5C35.3632 22.3952 33.6569 20.6889 31.5521 20.6889H3.81111ZM0 45.1889C0 43.0841 1.70629 41.3778 3.81111 41.3778H52.77C54.8748 41.3778 56.5811 43.0841 56.5811 45.1889C56.5811 47.2937 54.8748 49 52.77 49H3.81111C1.70629 49 0 47.2937 0 45.1889ZM45.5792 30.5094C48.6173 30.5094 51.0802 27.612 51.0802 24.0377C51.0802 20.4635 48.6173 17.566 45.5792 17.566C42.5412 17.566 40.0783 20.4635 40.0783 24.0377C40.0783 27.612 42.5412 30.5094 45.5792 30.5094Z" fill="#1D1A1A"/>
</svg>
