<svg width="42" height="50" viewBox="0 0 42 50" fill="none" xmlns="http://www.w3.org/2000/svg">
<path fill-rule="evenodd" clip-rule="evenodd" d="M33.0597 6.5745C35.0431 9.00722 36.1018 11.8673 36.1018 14.7931H18.0509V29.5862C14.4808 29.5862 10.9908 28.7186 8.02236 27.0931C5.05391 25.4676 2.74028 23.1573 1.37405 20.4542C0.00782119 17.7511 -0.349647 14.7767 0.346851 11.9071C1.04335 9.03754 2.76253 6.40166 5.28699 4.33281C7.81146 2.26395 11.0278 0.855047 14.5294 0.284252C18.0309 -0.286543 21.6603 0.00640961 24.9587 1.12606C28.2571 2.24572 31.0762 4.14179 33.0597 6.5745ZM6.96454 41.9449C4.97394 39.5161 3.90686 36.6581 3.89825 33.7323L21.9491 33.6966L21.9056 18.9036C25.4757 18.8965 28.9682 19.7572 31.9414 21.3768C34.9147 22.9965 37.2351 25.3023 38.6092 28.0026C39.9834 30.703 40.3496 33.6767 39.6616 36.5476C38.9735 39.4186 37.2621 42.0579 34.7437 44.1317C32.2254 46.2055 29.0132 47.6208 25.5133 48.1985C22.0135 48.7762 18.3832 48.4904 15.0815 47.3773C11.7799 46.2642 8.95515 44.3737 6.96454 41.9449Z" fill="#F3B30F"/>
<g filter="url(#filter0_d_13_81)">
<path d="M15.0312 15.0547V19.5625C14.8542 19.776 14.5807 20.0078 14.2109 20.2578C13.8411 20.5026 13.3646 20.7135 12.7812 20.8906C12.1979 21.0677 11.4922 21.1562 10.6641 21.1562C9.92969 21.1562 9.26042 21.0365 8.65625 20.7969C8.05208 20.5521 7.53125 20.1953 7.09375 19.7266C6.66146 19.2578 6.32812 18.6849 6.09375 18.0078C5.85938 17.3255 5.74219 16.5469 5.74219 15.6719V14.9609C5.74219 14.0859 5.85417 13.3073 6.07812 12.625C6.30729 11.9427 6.63281 11.3672 7.05469 10.8984C7.47656 10.4297 7.97917 10.0729 8.5625 9.82812C9.14583 9.58333 9.79427 9.46094 10.5078 9.46094C11.4974 9.46094 12.3099 9.6224 12.9453 9.94531C13.5807 10.263 14.0651 10.7057 14.3984 11.2734C14.737 11.8359 14.9453 12.4818 15.0234 13.2109H12.75C12.6927 12.8255 12.5833 12.4896 12.4219 12.2031C12.2604 11.9167 12.0286 11.6927 11.7266 11.5312C11.4297 11.3698 11.0443 11.2891 10.5703 11.2891C10.1797 11.2891 9.83073 11.3698 9.52344 11.5312C9.22135 11.6875 8.96615 11.9193 8.75781 12.2266C8.54948 12.5339 8.39062 12.9141 8.28125 13.3672C8.17188 13.8203 8.11719 14.3464 8.11719 14.9453V15.6719C8.11719 16.2656 8.17448 16.7917 8.28906 17.25C8.40365 17.7031 8.57292 18.0859 8.79688 18.3984C9.02604 18.7057 9.30729 18.9375 9.64062 19.0938C9.97396 19.25 10.362 19.3281 10.8047 19.3281C11.1745 19.3281 11.4818 19.2969 11.7266 19.2344C11.9766 19.1719 12.1771 19.0964 12.3281 19.0078C12.4844 18.9141 12.6042 18.8255 12.6875 18.7422V16.7266H10.5469V15.0547H15.0312Z" fill="#E80E0E"/>
</g>
<g filter="url(#filter1_d_13_81)">
<path d="M28.3492 29.4363H32.5914C33.4612 29.4363 34.2086 29.5665 34.8336 29.827C35.4638 30.0874 35.9481 30.4728 36.2867 30.9832C36.6252 31.4936 36.7945 32.1212 36.7945 32.866C36.7945 33.4754 36.6903 33.9988 36.482 34.4363C36.2789 34.8686 35.9898 35.2306 35.6148 35.5223C35.245 35.8087 34.8101 36.0379 34.3101 36.2098L33.5679 36.6004H29.8804L29.8648 34.7723H32.607C33.0184 34.7723 33.3596 34.6993 33.6304 34.5535C33.9013 34.4077 34.1044 34.2046 34.2398 33.9441C34.3804 33.6837 34.4507 33.3816 34.4507 33.0379C34.4507 32.6733 34.383 32.3582 34.2476 32.0926C34.1122 31.827 33.9065 31.6238 33.6304 31.4832C33.3544 31.3426 33.008 31.2723 32.5914 31.2723H30.6929V40.8113H28.3492V29.4363ZM34.7086 40.8113L32.1148 35.741L34.5914 35.7254L37.2164 40.702V40.8113H34.7086Z" fill="#650B0B"/>
</g>
<defs>
<filter id="filter0_d_13_81" x="1.74219" y="9.46094" width="17.2891" height="19.6953" filterUnits="userSpaceOnUse" color-interpolation-filters="sRGB">
<feFlood flood-opacity="0" result="BackgroundImageFix"/>
<feColorMatrix in="SourceAlpha" type="matrix" values="0 0 0 0 0 0 0 0 0 0 0 0 0 0 0 0 0 0 127 0" result="hardAlpha"/>
<feOffset dy="4"/>
<feGaussianBlur stdDeviation="2"/>
<feComposite in2="hardAlpha" operator="out"/>
<feColorMatrix type="matrix" values="0 0 0 0 0 0 0 0 0 0 0 0 0 0 0 0 0 0 0.25 0"/>
<feBlend mode="normal" in2="BackgroundImageFix" result="effect1_dropShadow_13_81"/>
<feBlend mode="normal" in="SourceGraphic" in2="effect1_dropShadow_13_81" result="shape"/>
</filter>
<filter id="filter1_d_13_81" x="24.3491" y="29.4363" width="16.8672" height="19.375" filterUnits="userSpaceOnUse" color-interpolation-filters="sRGB">
<feFlood flood-opacity="0" result="BackgroundImageFix"/>
<feColorMatrix in="SourceAlpha" type="matrix" values="0 0 0 0 0 0 0 0 0 0 0 0 0 0 0 0 0 0 127 0" result="hardAlpha"/>
<feOffset dy="4"/>
<feGaussianBlur stdDeviation="2"/>
<feComposite in2="hardAlpha" operator="out"/>
<feColorMatrix type="matrix" values="0 0 0 0 0 0 0 0 0 0 0 0 0 0 0 0 0 0 0.25 0"/>
<feBlend mode="normal" in2="BackgroundImageFix" result="effect1_dropShadow_13_81"/>
<feBlend mode="normal" in="SourceGraphic" in2="effect1_dropShadow_13_81" result="shape"/>
</filter>
</defs>
</svg>
