<svg width="31" height="30" viewBox="0 0 31 30" fill="none" xmlns="http://www.w3.org/2000/svg">
<rect x="0.25" y="0.25" width="30.5" height="29.5" rx="6.75" fill="#B8A70A" stroke="#FFF1F1" stroke-width="0.5"/>
<g filter="url(#filter0_i_13_88)">
<path d="M16.4434 17.0317C16.0678 17.3434 15.5222 17.3385 15.1523 17.0201L5.15015 8.40987C4.44394 7.80195 4.87978 6.64363 5.81157 6.65204L25.9697 6.83389C26.9015 6.84229 27.3163 8.00828 26.5993 8.60336L16.4434 17.0317Z" fill="#332D2D"/>
</g>
<path d="M16.1241 16.647C15.9363 16.8028 15.6635 16.8004 15.4785 16.6412L5.47635 8.03093C5.12325 7.72697 5.34117 7.14782 5.80706 7.15202L25.9652 7.33386C26.4311 7.33807 26.6385 7.92106 26.28 8.2186L16.1241 16.647Z" stroke="black"/>
<defs>
<filter id="filter0_i_13_88" x="4.80042" y="6.65199" width="22.1621" height="14.6102" filterUnits="userSpaceOnUse" color-interpolation-filters="sRGB">
<feFlood flood-opacity="0" result="BackgroundImageFix"/>
<feBlend mode="normal" in="SourceGraphic" in2="BackgroundImageFix" result="shape"/>
<feColorMatrix in="SourceAlpha" type="matrix" values="0 0 0 0 0 0 0 0 0 0 0 0 0 0 0 0 0 0 127 0" result="hardAlpha"/>
<feOffset dy="4"/>
<feGaussianBlur stdDeviation="2"/>
<feComposite in2="hardAlpha" operator="arithmetic" k2="-1" k3="1"/>
<feColorMatrix type="matrix" values="0 0 0 0 0 0 0 0 0 0 0 0 0 0 0 0 0 0 0.5 0"/>
<feBlend mode="normal" in2="shape" result="effect1_innerShadow_13_88"/>
</filter>
</defs>
</svg>
