<svg width="31" height="30" viewBox="0 0 31 30" fill="none" xmlns="http://www.w3.org/2000/svg">
<path d="M14.0173 6.50657C14.7327 5.46742 16.2673 5.46742 16.9827 6.50657L26.6012 20.4794C27.4233 21.6736 26.5684 23.3 25.1186 23.3H5.88142C4.43161 23.3 3.57668 21.6736 4.39876 20.4794L14.0173 6.50657Z" fill="#B8A70A" stroke="black" stroke-width="0.4"/>
<mask id="path-2-inside-1_13_89" fill="white">
<path d="M28 9.5C28 6.98044 26.683 4.56408 24.3388 2.78249C21.9946 1.00089 18.8152 1.90221e-07 15.5 0C12.1848 -1.90221e-07 9.00537 1.00089 6.66117 2.78248C4.31696 4.56408 3 6.98044 3 9.5L8.50206 9.5C8.50206 8.08946 9.23934 6.7367 10.5517 5.7393C11.8641 4.7419 13.644 4.18156 15.5 4.18156C17.356 4.18156 19.1359 4.7419 20.4483 5.7393C21.7607 6.7367 22.4979 8.08946 22.4979 9.5H28Z"/>
</mask>
<path d="M28 9.5C28 6.98044 26.683 4.56408 24.3388 2.78249C21.9946 1.00089 18.8152 1.90221e-07 15.5 0C12.1848 -1.90221e-07 9.00537 1.00089 6.66117 2.78248C4.31696 4.56408 3 6.98044 3 9.5L8.50206 9.5C8.50206 8.08946 9.23934 6.7367 10.5517 5.7393C11.8641 4.7419 13.644 4.18156 15.5 4.18156C17.356 4.18156 19.1359 4.7419 20.4483 5.7393C21.7607 6.7367 22.4979 8.08946 22.4979 9.5H28Z" fill="#B8A70A" stroke="black" stroke-width="0.8" mask="url(#path-2-inside-1_13_89)"/>
</svg>
