<svg width="65" height="69" viewBox="0 0 65 69" fill="none" xmlns="http://www.w3.org/2000/svg">
<path d="M65 32.5C65 50.4493 50.4493 65 32.5 65C14.5507 65 0 50.4493 0 32.5C0 14.5507 14.5507 0 32.5 0C50.4493 0 65 14.5507 65 32.5Z" fill="#282727"/>
<path d="M65 32.5C65 50.4493 50.4493 65 32.5 65C14.5507 65 0 50.4493 0 32.5C0 14.5507 14.5507 0 32.5 0C50.4493 0 65 14.5507 65 32.5Z" stroke="white"/>
<g filter="url(#filter0_d_12_186)">
<line x1="33" y1="12.5" x2="33" y2="53.5" stroke="white" stroke-width="4" stroke-linecap="round"/>
</g>
<g filter="url(#filter1_d_12_186)">
<line x1="53" y1="32.5" x2="12" y2="32.5" stroke="white" stroke-width="4" stroke-linecap="round"/>
</g>
<defs>
<filter id="filter0_d_12_186" x="22" y="5.5" width="22" height="63" filterUnits="userSpaceOnUse" color-interpolation-filters="sRGB">
<feFlood flood-opacity="0" result="BackgroundImageFix"/>
<feColorMatrix in="SourceAlpha" type="matrix" values="0 0 0 0 0 0 0 0 0 0 0 0 0 0 0 0 0 0 127 0" result="hardAlpha"/>
<feOffset dy="4"/>
<feGaussianBlur stdDeviation="4.5"/>
<feComposite in2="hardAlpha" operator="out"/>
<feColorMatrix type="matrix" values="0 0 0 0 0.433333 0 0 0 0 0.408056 0 0 0 0 0.408056 0 0 0 0.5 0"/>
<feBlend mode="normal" in2="BackgroundImageFix" result="effect1_dropShadow_12_186"/>
<feBlend mode="normal" in="SourceGraphic" in2="effect1_dropShadow_12_186" result="shape"/>
</filter>
<filter id="filter1_d_12_186" x="1" y="25.5" width="63" height="22" filterUnits="userSpaceOnUse" color-interpolation-filters="sRGB">
<feFlood flood-opacity="0" result="BackgroundImageFix"/>
<feColorMatrix in="SourceAlpha" type="matrix" values="0 0 0 0 0 0 0 0 0 0 0 0 0 0 0 0 0 0 127 0" result="hardAlpha"/>
<feOffset dy="4"/>
<feGaussianBlur stdDeviation="4.5"/>
<feComposite in2="hardAlpha" operator="out"/>
<feColorMatrix type="matrix" values="0 0 0 0 0.433333 0 0 0 0 0.408056 0 0 0 0 0.408056 0 0 0 0.5 0"/>
<feBlend mode="normal" in2="BackgroundImageFix" result="effect1_dropShadow_12_186"/>
<feBlend mode="normal" in="SourceGraphic" in2="effect1_dropShadow_12_186" result="shape"/>
</filter>
</defs>
</svg>
