<svg width="76" height="72" viewBox="0 0 76 72" fill="none" xmlns="http://www.w3.org/2000/svg">
<path d="M4.65695 33.4007L8.33189 29.6456C9.70293 28.2447 10.3689 26.3001 10.1445 24.3533L9.55728 19.26C9.34672 17.4336 10.5853 15.7551 12.3928 15.4174L18.1988 14.3326C20.022 13.9919 21.6133 12.8887 22.5719 11.3006L25.5166 6.42209C26.4255 4.91642 28.3101 4.31836 29.9201 5.02471L35.5702 7.50353C37.2128 8.22418 39.0804 8.23379 40.7309 7.53007L46.4081 5.10949C48.0259 4.41973 49.9038 5.03714 50.7959 6.55207L53.6864 11.4605C54.6274 13.0584 56.2063 14.178 58.0257 14.5374L63.8193 15.6818C65.623 16.038 66.8429 17.7292 66.6121 19.5534L65.9685 24.6403C65.7225 26.5847 66.367 28.536 67.7224 29.951L71.3555 33.7437C72.662 35.1075 72.6501 37.2625 71.3286 38.6128L67.6536 42.368C66.2826 43.7689 65.6166 45.7134 65.841 47.6603L66.4282 52.7536C66.6388 54.58 65.4002 56.2585 63.5927 56.5962L57.7867 57.681C55.9635 58.0216 54.3722 59.1249 53.4136 60.713L50.4689 65.5915C49.5601 67.0972 47.6754 67.6952 46.0654 66.9889L40.4154 64.51C38.7727 63.7894 36.9051 63.7798 35.2546 64.4835L29.5774 66.9041C27.9596 67.5938 26.0817 66.9764 25.1896 65.4615L22.2991 60.553C21.3581 58.9552 19.7792 57.8356 17.9598 57.4762L12.1662 56.3318C10.3625 55.9755 9.14261 54.2843 9.3734 52.4602L10.017 47.3733C10.263 45.4288 9.61856 43.4776 8.26311 42.0626L4.62998 38.2699C3.3235 36.906 3.33544 34.7511 4.65695 33.4007Z" stroke="#1D1A1A" stroke-width="3"/>
<ellipse cx="17.4439" cy="21.6229" rx="2.90731" ry="2.70287" fill="black"/>
<ellipse cx="30.5267" cy="13.5143" rx="2.90731" ry="2.70287" fill="black"/>
<ellipse cx="46.5169" cy="13.5143" rx="2.90731" ry="2.70287" fill="black"/>
<ellipse cx="59.5997" cy="21.6229" rx="2.90731" ry="2.70287" fill="black"/>
<ellipse cx="59.5997" cy="50.003" rx="2.90731" ry="2.70287" fill="black"/>
<ellipse cx="46.5169" cy="59.4631" rx="2.90731" ry="2.70287" fill="black"/>
<ellipse cx="30.5267" cy="59.4631" rx="2.90731" ry="2.70287" fill="black"/>
<ellipse cx="15.9901" cy="50.003" rx="2.90731" ry="2.70287" fill="black"/>
<ellipse cx="63.9608" cy="36.4887" rx="2.90731" ry="2.70287" fill="black"/>
<ellipse cx="11.6292" cy="36.4887" rx="2.90731" ry="2.70287" fill="black"/>
</svg>
