<svg width="180" height="177" viewBox="0 0 180 177" fill="none" xmlns="http://www.w3.org/2000/svg">
<path d="M88.0262 2.06469C88.3921 -0.171439 91.6079 -0.171439 91.9738 2.06469L100.824 56.1616C101.076 57.7028 102.918 58.3733 104.102 57.3547L145.655 21.6029C147.372 20.1251 149.836 22.1922 148.678 24.1403L120.685 71.2697C119.888 72.6124 120.868 74.3102 122.43 74.2909L177.241 73.6128C179.507 73.5847 180.066 76.7517 177.927 77.5003L126.189 95.6098C124.715 96.1258 124.374 98.0565 125.583 99.0454L168.007 133.758C169.761 135.193 168.153 137.978 166.033 137.177L114.759 117.793C113.298 117.241 111.796 118.501 112.087 120.035L122.272 173.897C122.693 176.123 119.672 177.223 118.563 175.247L91.7443 127.439C90.9802 126.077 89.0198 126.077 88.2557 127.439L61.4371 175.247C60.3285 177.223 57.3066 176.123 57.7276 173.897L67.9134 120.035C68.2036 118.501 66.7018 117.241 65.241 117.793L13.9666 137.177C11.8472 137.978 10.2393 135.193 11.9929 133.758L54.4171 99.0454C55.6257 98.0565 55.2853 96.1258 53.8113 95.6098L2.07307 77.5003C-0.0655594 76.7517 0.49287 73.5847 2.75855 73.6128L57.5704 74.2909C59.132 74.3102 60.1122 72.6124 59.3147 71.2697L31.3215 24.1403C30.1644 22.1922 32.6279 20.1251 34.3455 21.6029L75.8979 57.3547C77.0817 58.3733 78.924 57.7028 79.1761 56.1616L88.0262 2.06469Z" fill="#E16363"/>
</svg>
